<svg xmlns="http://www.w3.org/2000/svg"><path d="M30 11.797c2.813.416 5.182 1.719 7.11 3.906 1.926 2.188 2.89 4.74 2.89 7.656v10c0 1.823-.651 3.386-1.953 4.688C36.745 39.349 35.182 40 33.359 40H6.641c-1.823 0-3.386-.651-4.688-1.953C.651 36.745 0 35.182 0 33.359v-10c0-2.916.964-5.468 2.89-7.656 1.928-2.187 4.297-3.49 7.11-3.906V10c0-2.76.963-5.104 2.89-7.031C14.87.989 17.24 0 20 0c2.76 0 5.104.99 7.031 2.969C29.011 4.896 30 7.239 30 10v1.797zM13.36 10v1.64h13.28V10c0-1.823-.65-3.385-1.953-4.688C23.386 4.01 21.823 3.36 20 3.36c-1.823 0-3.385.651-4.688 1.954C14.01 6.614 13.36 8.177 13.36 10zm23.28 23.36v-10c0-2.032-.624-3.803-1.874-5.313-1.25-1.51-2.839-2.474-4.766-2.89v6.484c0 .468-.156.885-.469 1.25-.312.312-.703.468-1.172.468-.468 0-.885-.156-1.25-.468a1.866 1.866 0 01-.468-1.25V15H13.359v6.64c0 .47-.182.886-.546 1.25-.313.313-.704.47-1.172.47-.47 0-.86-.157-1.172-.47A1.866 1.866 0 0110 21.64v-6.484c-1.927.417-3.516 1.406-4.766 2.969-1.25 1.51-1.875 3.255-1.875 5.234v10c0 .938.313 1.72.938 2.344.625.625 1.406.938 2.344.938h26.718c.938 0 1.72-.313 2.344-.938.625-.625.938-1.406.938-2.344z"/></svg>