<svg fill="none" xmlns="http://www.w3.org/2000/svg" viewBox="0 0 20 20"><g clip-path="url(#clip0)" fill="#0C121C"><path d="M17.89 10.96l-.03-.15-.03-.05v-.08l.04-.34.02-.34v-.36l-.01-.11c-.01-.04-.01-.09-.04-.15l-.04-.07-.06-.05-.05-.06-.1-.06c-.1-.06-.22-.14-.36-.2a5.7 5.7 0 00-.37-.17c-.12-.04-.24-.1-.38-.14a9.46 9.46 0 00-1.96-.37l-.4-.02c-.27 0-.52-.02-.78-.03H11.83l-.48-.23-.55-.24-.33-.14-.79-.32c-.22-.08-.4-.13-.59-.18a2.1 2.1 0 00-.31-.07L8.45 7a5.88 5.88 0 00-.61 0l-.6.03a21 21 0 00-1.8.23l-.6.14c-.33.09-.7.2-1.15.35-.4.14-.8.27-1.14.4l-1.23.5-.61.27c-.1.04-.2.1-.31.13l-.16.08-.1.05-.08.05L0 9.3l.03.15.15.07.07-.07.03-.02.04-.02h.04l.15-.07.3-.12.63-.2 1.28-.42.06-.02c.72-.25 1.46-.52 2.2-.7a6.2 6.2 0 011.13-.23c.38-.05.77-.1 1.17-.12l.58-.03a5.29 5.29 0 01.85.02c.09 0 .17.03.27.05a7.4 7.4 0 011.3.47l.33.14.54.24.59.28.44-.01H13.34l.77.04c.12 0 .25 0 .38.02a8.48 8.48 0 012.2.47l.34.15c.12.06.23.12.31.18l.05.04v.01l.02.09.02.3v.33l-.01.33v.08c0 .06 0 .13.03.18 0 .03.02.05.04.06l.01.02c-.03.02-.06.03-.07.05l-.3.1-.63.15-.12.02-.02.22.15.06h.04a5.38 5.38 0 001.01-.2l.2-.1a.34.34 0 00.13-.17l.01-.08-.01-.07z"/><path d="M19.98 9.8A.93.93 0 0020 9.6V9.44l-.01-.64-.02-.18c-.01-.03-.01-.07-.03-.1 0-.02-.02-.07-.05-.1l-.05-.05-.02-.02-.15-.1-.04-.02-.01-.03-.02-.14-.07-.3a2.94 2.94 0 00-.12-.35c-.02-.03-.03-.07-.07-.1 0-.01 0-.03-.02-.04v-.02c-.02 0-.03-.03-.05-.04l-.17-.15c-.1-.07-.24-.12-.37-.17-.1-.03-.22-.06-.36-.08l-.17-.02-.18-.02-.34-.03-.67-.05-1.35-.08-1.28-.07-.57-.45-.63-.48-.64-.49-.33-.24-.03-.02c-.1-.07-.2-.15-.32-.22l-.1-.05-.09-.06a1.9 1.9 0 00-.66-.15c-.26-.02-.52-.02-.82-.02-.56-.01-1.1 0-1.61.02-.54 0-1.07.03-1.6.05-.54.02-1.08.04-1.6.08l-1.6.15-.8.09-.55.06c-.03 0-.05 0-.08.02a.85.85 0 00-.26.13c-.13.1-.23.2-.3.31-.08.1-.16.2-.24.33-.15.22-.29.45-.41.66-.13.22-.27.45-.38.68a2.84 2.84 0 00-.25.54c-.04.09-.05.16-.06.23v.11l.09.03.07.04.13-.08v-.07a1.06 1.06 0 01.12-.3c.07-.12.13-.24.2-.33a13.7 13.7 0 011.09-1.55c.05-.07.14-.16.23-.22.04-.04.09-.05.1-.06h.02l.53-.06.8-.08a55.07 55.07 0 014.75-.28c.5 0 1.05-.03 1.59-.03.26 0 .52 0 .77.02.14.01.25.03.34.06.06.01.1.04.15.06l.08.04.07.04.32.22.31.23.63.48.64.48.68.54 1.43.08 1.35.09c.22 0 .45.03.68.04l.33.03.16.01.16.02.3.07c.09.03.17.06.24.1l.1.08.01.03.02.04c.05.08.08.19.1.28a2.27 2.27 0 01.1.38l.06.25.24.11.1.05v.02l.01.13c.03.2.05.42.05.61V9.57l-.01.13a.51.51 0 01-.09.22c-.04.05-.1.1-.18.15l-.27.11-.1.07v.18l.09.04c.04.02.07.02.13 0l.3-.12a.76.76 0 00.3-.23c.11-.07.17-.2.2-.33zM1 11.7v-.57H.78l-.12.5c0 .05-.04.08-.1.08l-.08-.02v-.05l.07-.01c.02 0 .02-.01.03-.04l.13-.53c0-.02 0-.02.03-.02h.36v.65l-.1.01zM1.46 11.6c-.04.08-.08.11-.14.11a.21.21 0 01-.1-.02v-.05l.07-.01c.06-.01.08-.03.11-.08l.03-.06-.25-.44h.11l.13.26.05.12.06-.12.12-.25.03-.01h.08l-.3.55zM2.2 11.7v-.25h-.03c-.04.02-.08.03-.13.03-.07 0-.12-.02-.15-.05-.04-.04-.06-.08-.06-.16v-.21h.1v.2c0 .06 0 .08.03.1.02.02.05.03.12.03h.13l.01-.02v-.31h.1v.65l-.12-.01zM2.42 11.7v-.65h.1v.57h.28v-.57h.09v.57h.28v-.57h.1v.65h-.85zM3.87 11.7v-.5l-.12.14-.28.35H3.38v-.64h.09v.51l.11-.15.29-.34.02-.01h.06v.65l-.08-.01zM4.57 11.7v-.5l-.11.14-.29.35H4.1v-.64h.08v.51l.12-.15.28-.34.02-.01h.07v.65l-.09-.01zm-.35-.85l.06-.01c.02.04.05.07.1.07a.1.1 0 00.09-.07h.05c-.01.09-.07.14-.15.14-.08 0-.13-.05-.15-.13zM5.66 11.63v.19h-.08v-.12h-.52l-.01.13h-.06l-.02-.01v-.2H5.06l.13-.54c0-.01.01-.02.04-.02h.35v.57h.08zm-.5 0h.33v-.5h-.21l-.13.5zM6.23 11.7v-.5l-.12.14-.28.35H5.74v-.64h.09v.51l.11-.15.29-.34.02-.01h.06v.65l-.08-.01zM6.9 11.7v-.57h-.22l-.12.5c0 .05-.04.08-.1.08a.15.15 0 01-.08-.02v-.05l.07-.01c.02 0 .02-.01.03-.04l.13-.53c0-.02 0-.02.03-.02H7v.65l-.1.01zM7.55 11.13h-.33v.2h.3v.07h-.3v.23h.34v.07h-.44v-.65h.43v.08zM7.74 11.7h-.1v-.65h.24c.09 0 .15 0 .2.06a.2.2 0 01.05.15c0 .07-.02.12-.06.17-.03.03-.06.04-.14.04h-.2v.23h.01zm0-.3h.21c.04 0 .05 0 .06-.02.02-.02.03-.07.03-.12 0-.05-.01-.08-.03-.1-.03-.03-.08-.04-.13-.04h-.15l.01.28zM8.48 11.06h.24c.08 0 .13 0 .16.04.03.02.05.06.05.11a.2.2 0 01-.06.15c.06.02.1.08.1.16 0 .05-.01.1-.05.14a.27.27 0 01-.16.05h-.28v-.65zm.29.28c.02 0 .03 0 .04-.02.02-.02.03-.06.03-.1l-.02-.06c-.02-.02-.04-.02-.1-.02h-.14v.21h.19zm-.2.29h.19c.05 0 .08-.02.1-.04.02-.02.02-.04.02-.08 0-.03 0-.06-.02-.07-.02-.03-.05-.04-.1-.04h-.18v.23zM9.4 11.7h-.09v-.65h.1v.27h.06c.07 0 .09-.01.12-.05l.19-.23.06.05-.19.23-.03.03.23.34h-.1l-.01-.01-.2-.3H9.4v.32zM10.37 11.55h-.32l-.05.15-.01.01H9.9l.27-.65h.1l.27.65h-.09v-.01l-.08-.15zm-.3-.07h.27l-.06-.14-.08-.21-.09.21-.04.14zM10.7 11.13h-.23v-.07H11v.07h-.22v.57h-.1l.01-.57zM11.5 11.13h-.33v.2h.3v.07h-.3v.23h.35v.07h-.45v-.65h.44v.08zM11.7 11.13v.57h-.09v-.65h.42v.07l-.32.01zM12.37 11.71c-.17 0-.32-.14-.32-.34s.15-.33.32-.33.32.13.32.33-.15.34-.32.34zm0-.58c-.14 0-.22.08-.22.25 0 .16.1.25.22.25.14 0 .22-.09.22-.25 0-.17-.08-.25-.22-.25zM12.88 11.7h-.1v-.65h.23c.09 0 .15 0 .2.06a.2.2 0 01.05.15c0 .07-.02.12-.06.17-.03.03-.06.04-.14.04h-.2v.23h.02zm0-.3h.2c.04 0 .05 0 .06-.02.02-.02.03-.07.03-.12 0-.05-.01-.08-.03-.1-.03-.03-.08-.04-.13-.04h-.15l.02.28zM13.84 11.7v-.5l-.11.14-.29.35h-.08v-.64h.08v.51l.12-.15.28-.34.03-.01h.06v.65l-.09-.01zM14.54 11.7v-.5l-.12.14-.28.35h-.08v-.64h.08v.51l.12-.15.28-.34.02-.01h.06v.65l-.08-.01zM.7 13.72H.43V12.5h.49c.1 0 .18.01.24.03.06.02.13.05.17.1.03.03.05.07.07.12a.5.5 0 010 .35.6.6 0 01-.08.14.35.35 0 01-.14.07.53.53 0 01-.2.03H.7v.4zm.34-.6h.06l.03-.03a.51.51 0 00.03-.07v-.1a.2.2 0 00-.04-.15.17.17 0 00-.08-.04H.68v.4h.36zM2.29 13.48h-.54l-.09.22v.02H1.4l.48-1.23h.27l.01.02.5 1.2H2.4 2.4v-.02l-.1-.21zm-.47-.21h.38l-.08-.22-.07-.17-.05-.14-.02.08-.03.08-.03.1-.03.09-.07.18zM3.36 13h.04l.03-.03c.03-.02.04-.05.04-.1 0-.04-.02-.09-.06-.12-.04-.03-.1-.04-.18-.04l-.13.01-.14.03-.13.03-.07-.17a.96.96 0 01.66-.1c.06.01.11.03.15.06.04.04.08.08.1.12.02.04.04.1.04.16a.3.3 0 01-.03.13.3.3 0 01-.1.11c.05.03.1.06.13.1.03.05.04.1.04.16 0 .07-.01.13-.04.17a.33.33 0 01-.12.13.37.37 0 01-.16.07.6.6 0 01-.18.03.93.93 0 01-.31-.04.69.69 0 01-.24-.14l.08-.15.13.05.17.05.15.01c.09 0 .15 0 .2-.04a.13.13 0 00.07-.13c0-.05-.02-.08-.05-.1a.28.28 0 00-.15-.03h-.35V13h.41zM4.46 12.49l.18.02.13.05c.03.02.07.06.09.1a.3.3 0 01.03.14.3.3 0 01-.03.13.88.88 0 01-.09.13c.06.03.1.06.14.11.04.06.05.12.05.2 0 .11-.04.2-.11.27-.08.06-.2.1-.34.1h-.57V12.5h.52v-.01zm.07.52l.03-.01.02-.03.02-.05.01-.07c0-.05 0-.1-.04-.1-.03-.03-.07-.04-.14-.04h-.25v.3h.35zm-.34.5h.3c.07 0 .12 0 .16-.03.03-.02.04-.06.04-.12a.19.19 0 00-.03-.11c-.02-.02-.08-.03-.14-.03h-.33v.3zM6 12.89l-.03.05a.28.28 0 01-.05.07l-.06.07-.07.07-.44.55c0 .01 0 .02-.02.02h-.22V12.5h.25v.84l.03-.04.05-.05.04-.07.05-.06.48-.6c0-.01 0-.02.02-.02h.22v1.23H6v-.83zM7.05 13.72H6.8v-1h-.42v-.22h1.08v.21h-.41v1.01zM8.47 12.89l-.03.05a.28.28 0 01-.05.07l-.07.07-.06.07-.44.55-.02.02h-.23V12.5h.27v.84l.03-.04.04-.05.04-.07.06-.06.47-.6.02-.02h.23v1.23h-.26v-.83zM9.83 12.49v.21H9.2v.28h.57v.22H9.2v.3h.64v.21h-.9v-1.23l.89.01zM1.32 14.2v.22H.68v.28h.33c.15 0 .26.03.33.1.07.06.1.14.1.27 0 .12-.04.21-.11.28-.08.06-.2.09-.34.09H.43v-1.23h.89zM.7 15.23h.29c.07 0 .13-.01.16-.03.03-.02.04-.07.04-.12 0-.05-.01-.08-.04-.11-.02-.03-.08-.05-.15-.05H.68l.02.3zM2.49 14.6a.23.23 0 00-.04.05.28.28 0 01-.05.06l-.06.08-.06.07-.45.55s0 .02-.02.02H1.6V14.2h.25v.84a.14.14 0 00.04-.04c0-.02.02-.03.04-.06 0-.02.03-.04.04-.06l.05-.06.48-.6c0-.01 0-.02.02-.02h.22v1.23h-.24v-.83zM3.12 14.71h.44c.01 0 .02 0 .03-.02.02-.02.03-.05.03-.1s-.02-.09-.05-.12c-.04-.03-.1-.04-.18-.04h-.13l-.14.04-.13.03-.07-.18.24-.1a.96.96 0 01.42 0l.15.07c.04.03.07.08.1.12.02.04.04.1.04.16a.3.3 0 01-.03.13.3.3 0 01-.1.1c.05.04.1.07.13.11.03.05.04.1.04.16s-.01.13-.04.17a.34.34 0 01-.12.13.37.37 0 01-.16.07.6.6 0 01-.19.03.93.93 0 01-.3-.04.69.69 0 01-.24-.14l.08-.16.13.06.16.05.16.01c.09 0 .15-.01.2-.04a.13.13 0 00.07-.13c0-.05-.03-.08-.06-.1a.28.28 0 00-.14-.04H3.1v-.23zM4.92 14.91h-.58v.52H4.1V14.2h.25v.48h.58v-.48h.25v1.23h-.25v-.52zM6.29 14.42h-.63v.28h.57v.21h-.57v.3h.65v.22h-.9V14.2h.88v.22zM7.58 15.19l-.11.1a.6.6 0 01-.14.09l-.14.06-.17.02a.63.63 0 01-.25-.05.49.49 0 01-.19-.14.48.48 0 01-.11-.2.64.64 0 01-.04-.25.69.69 0 01.18-.47.57.57 0 01.42-.17c.12 0 .24.04.32.1a.6.6 0 01.2.27l-.16.11-.12-.1a.5.5 0 00-.13-.1.3.3 0 00-.13-.03.38.38 0 00-.12.02.17.17 0 00-.1.07.24.24 0 00-.06.13c-.02.05-.02.1-.02.17l.02.16c.01.05.04.08.07.12.03.03.06.07.1.08.04.02.1.03.15.03l.11-.01c.05-.01.09-.02.13-.06l.2-.09.09.14zM8.5 15.19h-.53l-.09.22-.01.02h-.25l.47-1.23h.28v.02l.5 1.2h-.26l-.01-.02-.1-.21zm-.46-.2h.38l-.09-.22-.06-.17-.05-.14-.02.07-.03.09-.04.1-.03.09-.06.18zM9.8 15.23h.56v.21h-.89v-.14c0-.03 0-.04.03-.07l.37-.37c.14-.14.2-.2.2-.3 0-.1-.08-.15-.19-.15a.92.92 0 00-.24.05l-.12.04-.07-.15a.8.8 0 01.46-.16c.24 0 .43.12.43.36 0 .17-.09.28-.32.48l-.22.2zM11.58 14.83c0 .39-.2.62-.52.62-.31 0-.51-.23-.51-.62v-.02c0-.4.2-.62.51-.62.32 0 .53.23.53.62l-.01.02zm-.26-.02c0-.28-.09-.4-.26-.4-.18 0-.26.12-.26.4v.02c0 .27.08.39.25.39.18 0 .27-.12.27-.4v-.01zM11.81 15.23h.32v-.75l-.14.05-.16.06-.07-.18.4-.18.08-.02h.14v1.02h.25v.21h-.82v-.21zM12.82 14.6c0-.23.2-.41.47-.41.34 0 .51.26.51.59 0 .39-.16.68-.52.68a.7.7 0 01-.38-.12l.06-.14.07.02.2.03c.21 0 .3-.1.3-.33l-.03.02a.69.69 0 01-.28.07c-.22-.01-.4-.16-.4-.4zm.67.15c.06-.02.06-.03.06-.06 0-.18-.1-.28-.26-.28-.13 0-.23.08-.23.2 0 .12.09.19.22.19.06 0 .14-.02.2-.05z"/></g><defs><clipPath id="clip0"><path fill="#fff" d="M0 0h20v20H0z"/></clipPath></defs></svg>