<svg width="24" height="24" fill="none" xmlns="http://www.w3.org/2000/svg"><path fill-rule="evenodd" clip-rule="evenodd" d="M23 4h-3V1c0-.6-.4-1-1-1s-1 .4-1 1v3h-3c-.6 0-1 .4-1 1s.4 1 1 1h3v3c0 .6.4 1 1 1s1-.4 1-1V6h3c.6 0 1-.4 1-1s-.4-1-1-1zm-4 8c-.6 0-1 .4-1 1v2c0 1.1-.9 2-2 2H4c-1.1 0-2-.9-2-2v-.3l1-7C3.1 6.7 4 6 5 6h6c.6 0 1-.4 1-1s-.4-1-1-1H5C3 4 1.3 5.4 1 7.4l-1 7v.6c0 1.4.8 2.7 2 3.5V22c0 1.1.9 2 2 2s2-.9 2-2v-3h9v3c0 1.1.9 2 2 2s2-.9 2-2v-4.4c.6-.7 1-1.7 1-2.6v-2c0-.6-.4-1-1-1z" fill="#fff"/><path fill-rule="evenodd" clip-rule="evenodd" d="M23 4h-3V1c0-.6-.4-1-1-1s-1 .4-1 1v3h-3c-.6 0-1 .4-1 1s.4 1 1 1h3v3c0 .6.4 1 1 1s1-.4 1-1V6h3c.6 0 1-.4 1-1s-.4-1-1-1zm-4 8c-.6 0-1 .4-1 1v2c0 1.1-.9 2-2 2H4c-1.1 0-2-.9-2-2v-.3l1-7C3.1 6.7 4 6 5 6h6c.6 0 1-.4 1-1s-.4-1-1-1H5C3 4 1.3 5.4 1 7.4l-1 7v.6c0 1.4.8 2.7 2 3.5V22c0 1.1.9 2 2 2s2-.9 2-2v-3h9v3c0 1.1.9 2 2 2s2-.9 2-2v-4.4c.6-.7 1-1.7 1-2.6v-2c0-.6-.4-1-1-1z" fill="#fff"/></svg>