<svg width="24" height="21" fill="none" xmlns="http://www.w3.org/2000/svg"><path fill-rule="evenodd" clip-rule="evenodd" d="M19.002 8.765c-.552 0-1 .414-1 .923v2.317c0 1.02-.894 1.846-1.998 1.846H4.01c-1.104 0-1.999-.826-1.999-1.846a2.415 2.415 0 010-.267l1-6.462c.144-.914.998-1.588 1.998-1.578h4.998c.552 0 1-.414 1-.923 0-.51-.448-.923-1-.923H5.009c-2-.02-3.708 1.329-3.997 3.156l-1 6.462a2.968 2.968 0 000 .535c.005 1.315.766 2.528 1.999 3.185v3.277c0 1.02.895 1.846 1.999 1.846s1.999-.826 1.999-1.846v-2.77h8.995v2.77c0 1.02.895 1.846 1.999 1.846s1.999-.826 1.999-1.846v-4.043a3.537 3.537 0 001-2.419V9.698a.888.888 0 00-.29-.659 1.043 1.043 0 00-.71-.274zM17.003 7.39a1.044 1.044 0 01-.71-.268l-2.998-2.769a.889.889 0 01-.296-.655c0-.246.107-.482.296-.656a1.059 1.059 0 011.41 0l2.298 2.114L22.29.273C22.478.098 22.733 0 23 0c.266 0 .522.098.71.273a.874.874 0 010 1.302l-5.997 5.538a1.042 1.042 0 01-.71.277z" fill="#fff"/><path fill-rule="evenodd" clip-rule="evenodd" d="M19.002 8.765c-.552 0-1 .414-1 .923v2.317c0 1.02-.894 1.846-1.998 1.846H4.01c-1.104 0-1.999-.826-1.999-1.846a2.415 2.415 0 010-.267l1-6.462c.144-.914.998-1.588 1.998-1.578h4.998c.552 0 1-.414 1-.923 0-.51-.448-.923-1-.923H5.009c-2-.02-3.708 1.329-3.997 3.156l-1 6.462a2.968 2.968 0 000 .535c.005 1.315.766 2.528 1.999 3.185v3.277c0 1.02.895 1.846 1.999 1.846s1.999-.826 1.999-1.846v-2.77h8.995v2.77c0 1.02.895 1.846 1.999 1.846s1.999-.826 1.999-1.846v-4.043a3.537 3.537 0 001-2.419V9.698a.888.888 0 00-.29-.659 1.043 1.043 0 00-.71-.274zM17.003 7.39a1.044 1.044 0 01-.71-.268l-2.998-2.769a.889.889 0 01-.296-.655c0-.246.107-.482.296-.656a1.059 1.059 0 011.41 0l2.298 2.114L22.29.273C22.478.098 22.733 0 23 0c.266 0 .522.098.71.273a.874.874 0 010 1.302l-5.997 5.538a1.042 1.042 0 01-.71.277z" fill="#fff"/></svg>