<svg width="45" height="39" xmlns="http://www.w3.org/2000/svg"><path fill-rule="evenodd" clip-rule="evenodd" d="M35.629 16.435c-1.035 0-1.874.775-1.874 1.73v4.345c0 1.912-1.678 3.462-3.748 3.462H7.519c-2.07 0-3.748-1.55-3.748-3.462a4.525 4.525 0 010-.502L5.645 9.893c.271-1.714 1.873-2.978 3.748-2.96h9.37c1.035 0 1.874-.775 1.874-1.73 0-.957-.84-1.731-1.874-1.731h-9.37C5.643 3.435 2.44 5.964 1.897 9.39L.023 21.506c-.03.334-.03.67 0 1.004.01 2.465 1.437 4.739 3.748 5.971v6.144c0 1.912 1.678 3.462 3.748 3.462 2.07 0 3.748-1.55 3.748-3.462v-5.192h16.866v5.192c0 1.912 1.678 3.462 3.748 3.462 2.07 0 3.748-1.55 3.748-3.462v-7.58c1.196-1.254 1.862-2.864 1.873-4.535v-4.327a1.664 1.664 0 00-.542-1.235 1.954 1.954 0 00-1.331-.513zm-3.748-2.579a1.958 1.958 0 01-1.331-.502l-5.622-5.192a1.667 1.667 0 01-.554-1.229c0-.461.2-.904.554-1.229.731-.67 1.912-.67 2.642 0l4.31 3.964L41.795.512c.352-.328.83-.512 1.33-.512.5 0 .98.184 1.331.512a1.639 1.639 0 010 2.44L33.211 13.337c-.35.33-.83.517-1.33.52z"/><mask id="a" maskUnits="userSpaceOnUse" x="0" y="0" width="45" height="39"><path fill-rule="evenodd" clip-rule="evenodd" d="M35.629 16.435c-1.035 0-1.874.775-1.874 1.73v4.345c0 1.912-1.678 3.462-3.748 3.462H7.519c-2.07 0-3.748-1.55-3.748-3.462a4.525 4.525 0 010-.502L5.645 9.893c.271-1.714 1.873-2.978 3.748-2.96h9.37c1.035 0 1.874-.775 1.874-1.73 0-.957-.84-1.731-1.874-1.731h-9.37C5.643 3.435 2.44 5.964 1.897 9.39L.023 21.506c-.03.334-.03.67 0 1.004.01 2.465 1.437 4.739 3.748 5.971v6.144c0 1.912 1.678 3.462 3.748 3.462 2.07 0 3.748-1.55 3.748-3.462v-5.192h16.866v5.192c0 1.912 1.678 3.462 3.748 3.462 2.07 0 3.748-1.55 3.748-3.462v-7.58c1.196-1.254 1.862-2.864 1.873-4.535v-4.327a1.664 1.664 0 00-.542-1.235 1.954 1.954 0 00-1.331-.513zm-3.748-2.579a1.958 1.958 0 01-1.331-.502l-5.622-5.192a1.667 1.667 0 01-.554-1.229c0-.461.2-.904.554-1.229.731-.67 1.912-.67 2.642 0l4.31 3.964L41.795.512c.352-.328.83-.512 1.33-.512.5 0 .98.184 1.331.512a1.639 1.639 0 010 2.44L33.211 13.337c-.35.33-.83.517-1.33.52z" fill="#fff"/></mask></svg>