<svg width="28" height="17" fill="none" xmlns="http://www.w3.org/2000/svg"><path d="M3.555 9.352c.765.765 1.713 1.148 2.843 1.148 1.167 0 2.133-.383 2.899-1.148l1.64 1.64c-1.24 1.24-2.752 1.86-4.539 1.86-1.786 0-3.299-.62-4.539-1.86C.62 9.716 0 8.203 0 6.453c0-1.75.62-3.263 1.86-4.539C3.098.638 4.611 0 6.397 0c1.787 0 3.3.638 4.54 1.914l-1.641 1.64c-.802-.801-1.768-1.202-2.899-1.202-1.093 0-2.041.4-2.843 1.203-.802.802-1.203 1.768-1.203 2.898 0 1.13.4 2.096 1.203 2.899zM17.28 0c1.75 0 3.263.638 4.54 1.914 1.275 1.276 1.913 2.79 1.913 4.54s-.638 3.262-1.914 4.538c-1.24 1.24-2.752 1.86-4.539 1.86-1.786 0-3.3-.62-4.539-1.86-1.276-1.276-1.914-2.789-1.914-4.539 0-1.75.638-3.263 1.914-4.539C14.018.638 15.532 0 17.282 0zm0 10.555c1.13 0 2.097-.401 2.899-1.203.802-.803 1.203-1.769 1.203-2.899 0-1.13-.401-2.096-1.203-2.898-.875-.802-1.841-1.203-2.899-1.203-1.13 0-2.096.4-2.898 1.203-.802.802-1.203 1.768-1.203 2.898 0 1.13.4 2.096 1.203 2.899.802.802 1.768 1.203 2.898 1.203zm9.078 4.43H28v1.75h-5.906l3.828-3.829c.4-.4.4-.802 0-1.203-.146-.146-.346-.219-.602-.219-.255 0-.474.073-.656.22a.742.742 0 00-.219.546h-1.75c0-.693.256-1.294.766-1.805.474-.474 1.094-.71 1.86-.71.765 0 1.385.236 1.859.71.51.51.765 1.13.765 1.86 0 .729-.255 1.349-.765 1.86l-.82.82z" fill="#4A4F54"/></svg>