<svg width="16" height="16" fill="none" xmlns="http://www.w3.org/2000/svg"><path fill-rule="evenodd" clip-rule="evenodd" d="M.794 15.206a.615.615 0 00.874 0L8 8.868l6.332 6.338a.615.615 0 00.874 0 .615.615 0 000-.874L8.868 8l6.338-6.332a.618.618 0 10-.874-.874L8 7.132 1.668.794a.618.618 0 10-.874.874L7.132 8 .794 14.332a.615.615 0 000 .874z" fill="#0C121C"/><mask id="a" maskUnits="userSpaceOnUse" x="0" y="0" width="16" height="16"><path fill-rule="evenodd" clip-rule="evenodd" d="M.794 15.206a.615.615 0 00.874 0L8 8.868l6.332 6.338a.615.615 0 00.874 0 .615.615 0 000-.874L8.868 8l6.338-6.332a.618.618 0 10-.874-.874L8 7.132 1.668.794a.618.618 0 10-.874.874L7.132 8 .794 14.332a.615.615 0 000 .874z" fill="#fff"/></mask></svg>