<svg width="14" height="24" fill="none" xmlns="http://www.w3.org/2000/svg"><path d="M13.634 15.06c.436.357.482.778.14 1.264L7.607 23.66l-.046.049a.735.735 0 01-.187.145h-.047c0 .033-.016.049-.047.049a.73.73 0 01-.327.097.804.804 0 01-.373-.097c0-.033-.016-.049-.047-.049a1.075 1.075 0 01-.234-.145v-.05L.226 16.325c-.342-.486-.296-.89.14-1.215.467-.356.857-.324 1.168.098l4.578 5.44V.924c0-.259.078-.47.234-.632.187-.194.39-.291.607-.291.218 0 .405.097.56.291.188.162.281.373.281.632v19.725l4.672-5.49c.311-.421.7-.454 1.168-.097z" fill="#fff"/></svg>