<svg width="28" height="28" fill="none" xmlns="http://www.w3.org/2000/svg"><path fill-rule="evenodd" clip-rule="evenodd" d="M2.917 28h15.166V2.333A2.333 2.333 0 0015.75 0H5.25a2.333 2.333 0 00-2.333 2.333V28zm12.833-2.333H5.25V2.333h10.5v23.334z" fill="#4A4F54"/><path d="M23.905 24.5a3.5 3.5 0 01-3.5-3.5v-7c0-.644-.522-1.167-1.167-1.167H4.072a1.167 1.167 0 010-2.333h15.166a3.5 3.5 0 013.5 3.5v7a1.167 1.167 0 002.334 0V9.765a3.5 3.5 0 00-.759-2.182l-3.64-4.55a1.167 1.167 0 111.82-1.458l3.64 4.55a5.833 5.833 0 011.272 3.64V21a3.5 3.5 0 01-3.5 3.5zM19.25 28H1.75a1.167 1.167 0 110-2.333h17.5a1.167 1.167 0 110 2.333z" fill="#4A4F54"/></svg>