<svg fill="none" xmlns="http://www.w3.org/2000/svg" viewBox="0 0 18 19"><path d="M5.27.32a100.7 100.7 0 017.46 0c.84.02 1.57.15 2.18.39a4.92 4.92 0 013.02 4.82 100.65 100.65 0 010 7.45 6.6 6.6 0 01-.39 2.18 5.5 5.5 0 01-1.05 1.58c-.47.44-1 .8-1.58 1.05a6.6 6.6 0 01-2.18.39 100.65 100.65 0 01-7.46 0 4.92 4.92 0 01-4.82-3.02 6.59 6.59 0 01-.38-2.18 100.7 100.7 0 010-7.46c.02-.84.15-1.57.39-2.18A4.92 4.92 0 015.28.32zm7.35 1.62a98.02 98.02 0 00-7.24 0c-.63.02-1.2.11-1.69.28-.35.14-.69.37-1.02.7-.33.33-.56.67-.7 1.02a4.6 4.6 0 00-.28 1.69 98 98 0 000 7.24c.02.77.11 1.34.28 1.69.14.35.37.69.7 1.02.33.33.67.56 1.02.7.35.17.92.26 1.69.28a97.95 97.95 0 007.24 0 4.59 4.59 0 001.69-.28c.35-.14.69-.37 1.02-.7.33-.33.56-.67.7-1.02.17-.35.26-.92.28-1.69a97.95 97.95 0 000-7.24 4.59 4.59 0 00-.28-1.69c-.14-.35-.37-.69-.7-1.02a3.07 3.07 0 00-1.02-.7 6.04 6.04 0 00-1.69-.28zM6.9 11.36c.59.59 1.29.88 2.11.88.82 0 1.52-.3 2.1-.88.6-.59.89-1.29.89-2.11 0-.82-.3-1.52-.88-2.1A2.88 2.88 0 009 6.25c-.82 0-1.52.3-2.1.88A2.88 2.88 0 006 9.25c0 .82.3 1.52.88 2.1zM5.73 5.98c.9-.89 1.98-1.34 3.27-1.34s2.38.45 3.27 1.34c.89.9 1.34 1.98 1.34 3.27s-.45 2.38-1.34 3.27c-.9.89-1.98 1.34-3.27 1.34a4.45 4.45 0 01-3.27-1.34 4.45 4.45 0 01-1.34-3.27c0-1.29.45-2.38 1.34-3.27zm8.82-2.28c.22.18.32.43.32.73s-.1.57-.32.78a.94.94 0 01-.73.31c-.3 0-.57-.1-.78-.31a1.05 1.05 0 01-.31-.78c0-.3.1-.55.31-.73.21-.22.47-.32.78-.32.3 0 .55.1.73.32z" fill="#E9ECEC"/></svg>