<svg xmlns="http://www.w3.org/2000/svg"><path d="M20.547 0l.156.078h.313l.156.078h.156l.156.078h.078l.313.157h.156l.469.234.078.078h.156l.313.156.234.235.157.078.078.078.312.156.078.157.157.078.078.078.078.156 13.984 13.906.078.078.078.157.157.078.078.156.078.078.078.156.234.235.157.312.078.078.234.47v.155l.078.078.157.313v.156l.156.313v.312l.078.157v.156l.078.156V20l.078.156v1.407l-.078.156v.625l-.078.156v.313l-.078.156v.078l-.157.312v.157l-.156.312v.156l-.078.157-.078.078-.234.468-.078.079-.157.312-.156.078-.156.313-12.89 12.89-.157.078-.078.157-.157.078-.078.078-.312.156-.078.157-.313.156-.078.078-.156.078h-.156l-.47.234h-.077l-.313.157h-.156l-.156.078h-.157l-.156.078h-.312l-.157.078h-2.656l-.156-.078h-.313l-.156-.078h-.156l-.156-.078h-.157l-.312-.157h-.078l-.469-.234h-.156l-.156-.078-.078-.078-.313-.157-.234-.234-.157-.078-.078-.078-.156-.078-.078-.157-.156-.078L1.563 23.906l-.079-.156-.156-.078-.156-.313-.078-.078-.157-.312-.078-.078-.234-.47-.078-.077-.078-.157v-.156l-.156-.312v-.157l-.157-.312v-.313l-.078-.156v-.312L0 20.312v-15l.078-.156v-.312l.078-.157v-.234l.078-.156V4.14l.078-.157.079-.078V3.75l.156-.313V3.36l.078-.156.078-.078.156-.313.079-.078.078-.156.078-.078.078-.156.078-.078.078-.157.078-.078.157-.078.078-.156.078-.078.156-.078.078-.079.078-.156.156-.078.157-.156.156-.078.078-.078.313-.157.078-.078.156-.078.078-.078.156-.078h.157l.078-.078.312-.156h.156l.079-.079h.156l.156-.078h.156l.157-.078H5L5.156 0h15.39zM5.469 3.36l-.078.078h-.235l-.078.078h-.156l-.078.078h-.078l-.157.156h-.078l-.078.078h-.078v.078h-.078l-.234.235v.078h-.079v.078h-.078v.078l-.156.156v.078h-.078v.157h-.078v.156L3.516 5v.078l-.079.078v.313l-.078.078v14.61l.079.077v.313l.078.078v.078l.078.078v.157l.078.078v.078l.156.156v.078l.078.078v.078l.235.235v.078h.078l.078.078 13.828 13.906.078.078h.078l.235.235h.078v.078h.078l.078.078h.078l.078.078h.078v.078h.157l.078.078h.156l.078.078h.235v.079h2.343v-.078h.235l.078-.079h.156l.078-.078h.156v-.078h.078l.079-.078h.078l.078-.078h.078v-.078h.078l.313-.313h.078L35.78 23.516l.313-.313v-.078l.156-.156v-.078l.078-.078v-.079l.078-.078v-.078h.078v-.156l.078-.078v-.235l.079-.078v-.468l.078-.079v-1.172l-.078-.078v-.625l-.078-.078v-.156l-.079-.078v-.156l-.078-.078v-.079l-.078-.078v-.078h-.078v-.078l-.078-.078v-.078l-.156-.157v-.078l-.078-.078h-.079v-.078L21.875 4.22h-.078V4.14l-.078-.079h-.078l-.078-.078v-.078h-.079l-.078-.078h-.078V3.75h-.078l-.078-.078h-.156l-.078-.078h-.079v-.078h-.234l-.078-.079h-.235l-.078-.078H5.47zM15 11.64c0 .938-.313 1.745-.938 2.422-.624.626-1.406.938-2.343.938-.938 0-1.745-.313-2.422-.938-.625-.677-.938-1.484-.938-2.421 0-.938.313-1.72.938-2.344.677-.625 1.484-.938 2.422-.938.937 0 1.719.313 2.344.938.624.625.937 1.406.937 2.344z"/></svg>