<svg fill="none" xmlns="http://www.w3.org/2000/svg" viewBox="0 0 14 19"><path fill-rule="evenodd" clip-rule="evenodd" d="M9.45 12.04l-2.31 1.4a.76.76 0 01-.78 0l-2.31-1.4a5.31 5.31 0 012.7-9.85 5.31 5.31 0 012.7 9.85zM6.75.68a6.83 6.83 0 00-4.04 12.28L4.5 14.3c.91.7 1.5 1.8 1.5 3.03v.76c0 .42.34.76.75.76s.75-.34.75-.76v-.76c0-1.24.6-2.34 1.5-3.03l1.8-1.36A6.83 6.83 0 006.75.68zm0 4.54A2.26 2.26 0 019 7.5c0 1.26-1 2.28-2.25 2.28A2.26 2.26 0 014.5 7.49c0-1.25 1-2.27 2.25-2.27z" fill="#0C121C"/></svg>