<svg xmlns="http://www.w3.org/2000/svg"><path fill-rule="evenodd" clip-rule="evenodd" d="M38.378 4.579l-.025-.155-.136-.077A41.29 41.29 0 0019.81 0h-.031A48.654 48.654 0 00.37 4.369l-.154.075-.02.166a36.082 36.082 0 003.38 19.421c5.306 10.478 15.86 15.844 15.966 15.894l.151.075.147-.08a40.911 40.911 0 0015.192-15.918 36.06 36.06 0 003.345-19.423zm-6.292 17.976a36.562 36.562 0 01-12.291 13.54c-2.315-1.374-9.261-5.97-13.023-13.522A31.363 31.363 0 013.627 6.729a41.113 41.113 0 0116.147-3.296h.034a37.068 37.068 0 0115.394 3.15 31.966 31.966 0 01-3.116 15.972zM19.558 13.65h-.016a6.66 6.66 0 00-3.257.74v-3.31l9.262-.008V7.738l-12.755.01.01 11.444h3.486v-.323a1.499 1.499 0 01.575-1.342 4.487 4.487 0 012.558-.537h.01c2.735 0 3.13.792 3.13 3.708 0 2.718-.655 3.342-3.504 3.344h-.019a4.862 4.862 0 01-2.407-.394 1.397 1.397 0 01-.586-1.357v-.323h-3.487v.323a4.5 4.5 0 001.942 4.072 8.339 8.339 0 004.541 1.01h.02c5.054 0 7.114-1.977 7.11-6.804-.007-5.171-1.675-6.918-6.613-6.918z"/></svg>