<svg width="21" height="21" fill="none" xmlns="http://www.w3.org/2000/svg"><path fill-rule="evenodd" clip-rule="evenodd" d="M20.92 5.56l-.566-2.078A4.736 4.736 0 0015.794 0a4.7 4.7 0 00-3.265 1.31L1.46 11.898A4.68 4.68 0 000 15.313a4.746 4.746 0 002.675 4.256l2.487 1.202c.317.152.655.229 1.008.229a2.31 2.31 0 001.929-1.034l1.928-2.89a2.32 2.32 0 00.386-1.285l-.019-.258-.014-.021a2.292 2.292 0 00-.69-1.415l-1.196-1.16-.608.628.608-.752 4.318-4.318.127.001 1.158 1.197c.383.391.879.631 1.413.688l.282.03c.461 0 .906-.133 1.285-.387l2.889-1.925a2.315 2.315 0 00.953-2.54zm-1.923 1.083l-2.89 1.925a.544.544 0 01-.167.076h-.178a.57.57 0 01-.408-.17l-1.159-1.195c-.687-.708-1.925-.716-2.619-.02L7.26 11.575a1.837 1.837 0 00.018 2.62l1.196 1.16a.56.56 0 01.172.409l.01.13a.608.608 0 01-.087.216l-1.925 2.886a.584.584 0 01-.72.2l-2.49-1.202a2.995 2.995 0 01-1.684-2.681c0-.821.326-1.585.92-2.15l11.068-10.59a2.98 2.98 0 014.927 1.367l.566 2.082a.567.567 0 01-.234.621z" fill="#0C121C"/><path fill-rule="evenodd" clip-rule="evenodd" d="M20.92 5.56l-.566-2.078A4.736 4.736 0 0015.794 0a4.7 4.7 0 00-3.265 1.31L1.46 11.898A4.68 4.68 0 000 15.313a4.746 4.746 0 002.675 4.256l2.487 1.202c.317.152.655.229 1.008.229a2.31 2.31 0 001.929-1.034l1.928-2.89a2.32 2.32 0 00.386-1.285l-.019-.258-.014-.021a2.292 2.292 0 00-.69-1.415l-1.196-1.16-.608.628.608-.752 4.318-4.318.127.001 1.158 1.197c.383.391.879.631 1.413.688l.282.03c.461 0 .906-.133 1.285-.387l2.889-1.925a2.315 2.315 0 00.953-2.54zm-1.923 1.083l-2.89 1.925a.544.544 0 01-.167.076h-.178a.57.57 0 01-.408-.17l-1.159-1.195c-.687-.708-1.925-.716-2.619-.02L7.26 11.575a1.837 1.837 0 00.018 2.62l1.196 1.16a.56.56 0 01.172.409l.01.13a.608.608 0 01-.087.216l-1.925 2.886a.584.584 0 01-.72.2l-2.49-1.202a2.995 2.995 0 01-1.684-2.681c0-.821.326-1.585.92-2.15l11.068-10.59a2.98 2.98 0 014.927 1.367l.566 2.082a.567.567 0 01-.234.621z" fill="#0C121C"/></svg>