<svg width="20" height="20" fill="none" xmlns="http://www.w3.org/2000/svg"><path fill-rule="evenodd" clip-rule="evenodd" d="M6.077 7.22a.84.84 0 00.59.242c.46 0 .833-.37.833-.829a.818.818 0 00-.244-.586L1.422.243A.83.83 0 00.833 0C.373 0 0 .37 0 .83a.82.82 0 00.244.585L6.077 7.22zM3.09 17.999a.833.833 0 01-1.423-.585c0-.3.153-.498.244-.587l7.587-7.55c.166.22.342.432.543.633.2.202.415.375.636.537L3.09 18zm8.13-15.126A4.175 4.175 0 0114.758 1.7l-1.769 1.76a2.476 2.476 0 000 3.517 2.506 2.506 0 003.535 0l1.77-1.76a4.128 4.128 0 01-1.18 3.518 4.18 4.18 0 01-5.892 0 4.128 4.128 0 010-5.86zm7.071 7.035a5.772 5.772 0 001.65-4.93l-.236-1.637a.833.833 0 00-1.414-.467l-2.946 2.93a.835.835 0 01-1.179 0 .825.825 0 010-1.172l2.947-2.933a.826.826 0 00-.47-1.405L14.999.059a5.841 5.841 0 00-4.956 1.64 5.783 5.783 0 00-1.316 6.192L.732 15.654A2.474 2.474 0 000 17.414 2.495 2.495 0 002.5 19.9a2.5 2.5 0 001.767-.73l7.803-7.952a5.85 5.85 0 006.221-1.31zm-.791 8.434a.828.828 0 01-.59-.243l-2.602-2.588a.818.818 0 01-.244-.585c0-.459.374-.83.833-.83.223 0 .432.087.59.243h.001l2.6 2.587.002.001a.819.819 0 01.243.586c0 .457-.374.829-.833.829zm1.769-2.587h-.002l-2.6-2.586v-.002a2.499 2.499 0 00-1.77-.729 2.497 2.497 0 00-2.5 2.488c0 .664.26 1.289.733 1.757l2.602 2.588c.472.469 1.1.73 1.768.73 1.378 0 2.5-1.117 2.5-2.488 0-.665-.26-1.29-.731-1.758z" fill="#fff"/><path fill-rule="evenodd" clip-rule="evenodd" d="M6.077 7.22a.84.84 0 00.59.242c.46 0 .833-.37.833-.829a.818.818 0 00-.244-.586L1.422.243A.83.83 0 00.833 0C.373 0 0 .37 0 .83a.82.82 0 00.244.585L6.077 7.22zM3.09 17.999a.833.833 0 01-1.423-.585c0-.3.153-.498.244-.587l7.587-7.55c.166.22.342.432.543.633.2.202.415.375.636.537L3.09 18zm8.13-15.126A4.175 4.175 0 0114.758 1.7l-1.769 1.76a2.476 2.476 0 000 3.517 2.506 2.506 0 003.535 0l1.77-1.76a4.128 4.128 0 01-1.18 3.518 4.18 4.18 0 01-5.892 0 4.128 4.128 0 010-5.86zm7.071 7.035a5.772 5.772 0 001.65-4.93l-.236-1.637a.833.833 0 00-1.414-.467l-2.946 2.93a.835.835 0 01-1.179 0 .825.825 0 010-1.172l2.947-2.933a.826.826 0 00-.47-1.405L14.999.059a5.841 5.841 0 00-4.956 1.64 5.783 5.783 0 00-1.316 6.192L.732 15.654A2.474 2.474 0 000 17.414 2.495 2.495 0 002.5 19.9a2.5 2.5 0 001.767-.73l7.803-7.952a5.85 5.85 0 006.221-1.31zm-.791 8.434a.828.828 0 01-.59-.243l-2.602-2.588a.818.818 0 01-.244-.585c0-.459.374-.83.833-.83.223 0 .432.087.59.243h.001l2.6 2.587.002.001a.819.819 0 01.243.586c0 .457-.374.829-.833.829zm1.769-2.587h-.002l-2.6-2.586v-.002a2.499 2.499 0 00-1.77-.729 2.497 2.497 0 00-2.5 2.488c0 .664.26 1.289.733 1.757l2.602 2.588c.472.469 1.1.73 1.768.73 1.378 0 2.5-1.117 2.5-2.488 0-.665-.26-1.29-.731-1.758z" fill="#fff"/></svg>