<svg width="45" height="45" xmlns="http://www.w3.org/2000/svg"><path fill-rule="evenodd" clip-rule="evenodd" d="M13.718 16.244a1.865 1.865 0 102.638-2.638L3.297.546A1.865 1.865 0 10.66 3.183l13.06 13.062zM7.03 40.496a1.873 1.873 0 01-1.32.549 1.869 1.869 0 01-1.866-1.866c0-.673.343-1.117.546-1.319l16.986-16.988c.372.495.765.972 1.215 1.426.45.453.93.843 1.423 1.209L7.03 40.497zM25.233 6.465a9.319 9.319 0 017.917-2.642l-3.96 3.96a5.592 5.592 0 000 7.912 5.59 5.59 0 007.913 0l3.96-3.958a9.317 9.317 0 01-2.639 7.915 9.323 9.323 0 01-13.191 0 9.32 9.32 0 010-13.187zm15.829 15.827A13.027 13.027 0 0044.754 11.2l-.526-3.682a1.84 1.84 0 00-.528-1.05 1.858 1.858 0 00-2.638 0l-6.597 6.592c-.73.73-1.908.73-2.638 0a1.863 1.863 0 010-2.637l6.597-6.6c.73-.729.728-1.906 0-2.637a1.87 1.87 0 00-1.05-.524L33.689.133a13.036 13.036 0 00-11.094 3.692c-3.769 3.77-4.743 9.262-2.948 13.93L1.752 35.222a5.58 5.58 0 00-1.64 3.957 5.599 5.599 0 005.597 5.597 5.58 5.58 0 003.957-1.642L27.134 25.24c4.667 1.796 10.16.823 13.928-2.948zM39.29 41.27c-.5 0-.967-.194-1.32-.547v-.002l-5.825-5.82v-.002a1.841 1.841 0 01-.547-1.315 1.866 1.866 0 013.184-1.32h.004l5.823 5.821.003.002a1.867 1.867 0 01-1.323 3.183zm3.96-5.82h-.003l-5.823-5.82v-.003a5.58 5.58 0 00-3.96-1.64 5.604 5.604 0 00-5.597 5.597c0 1.494.582 2.9 1.64 3.953v.002l5.822 5.818.004.004A5.571 5.571 0 0039.29 45a5.603 5.603 0 005.596-5.597c0-1.496-.58-2.9-1.636-3.955z"/><mask id="a" maskUnits="userSpaceOnUse" x="0" y="0" width="45" height="45"><path fill-rule="evenodd" clip-rule="evenodd" d="M13.718 16.244a1.865 1.865 0 102.638-2.638L3.297.546A1.865 1.865 0 10.66 3.183l13.06 13.062zM7.03 40.496a1.873 1.873 0 01-1.32.549 1.869 1.869 0 01-1.866-1.866c0-.673.343-1.117.546-1.319l16.986-16.988c.372.495.765.972 1.215 1.426.45.453.93.843 1.423 1.209L7.03 40.497zM25.233 6.465a9.319 9.319 0 017.917-2.642l-3.96 3.96a5.592 5.592 0 000 7.912 5.59 5.59 0 007.913 0l3.96-3.958a9.317 9.317 0 01-2.639 7.915 9.323 9.323 0 01-13.191 0 9.32 9.32 0 010-13.187zm15.829 15.827A13.027 13.027 0 0044.754 11.2l-.526-3.682a1.84 1.84 0 00-.528-1.05 1.858 1.858 0 00-2.638 0l-6.597 6.592c-.73.73-1.908.73-2.638 0a1.863 1.863 0 010-2.637l6.597-6.6c.73-.729.728-1.906 0-2.637a1.87 1.87 0 00-1.05-.524L33.689.133a13.036 13.036 0 00-11.094 3.692c-3.769 3.77-4.743 9.262-2.948 13.93L1.752 35.222a5.58 5.58 0 00-1.64 3.957 5.599 5.599 0 005.597 5.597 5.58 5.58 0 003.957-1.642L27.134 25.24c4.667 1.796 10.16.823 13.928-2.948zM39.29 41.27c-.5 0-.967-.194-1.32-.547v-.002l-5.825-5.82v-.002a1.841 1.841 0 01-.547-1.315 1.866 1.866 0 013.184-1.32h.004l5.823 5.821.003.002a1.867 1.867 0 01-1.323 3.183zm3.96-5.82h-.003l-5.823-5.82v-.003a5.58 5.58 0 00-3.96-1.64 5.604 5.604 0 00-5.597 5.597c0 1.494.582 2.9 1.64 3.953v.002l5.822 5.818.004.004A5.571 5.571 0 0039.29 45a5.603 5.603 0 005.596-5.597c0-1.496-.58-2.9-1.636-3.955z" fill="#fff"/></mask></svg>