<svg width="24" height="24" fill="none" xmlns="http://www.w3.org/2000/svg"><path fill-rule="evenodd" clip-rule="evenodd" d="M12 0C5.4 0 0 5.4 0 12s5.4 12 12 12 12-5.4 12-12S18.6 0 12 0zm0 2c5.2 0 9.5 3.9 10 9h-4c-.4 0-.7-.1-1-.4l-1-.9c-.6-.5-1.3-.7-2-.7h-4c-.7 0-1.4.3-1.9.7l-1.1.9c-.3.3-.6.4-1 .4H2c.6-5.1 4.9-9 10-9zM2 13h3.5c.4 0 .8.2 1.1.5l1.7 1.9c.1.1.2.3.4.4l1.9 1.7c.3.3.5.7.5 1.1V22c-4.8-.5-8.6-4.2-9.1-9zm11.1 9v-3.5c0-.4.2-.8.5-1.1l1.9-1.7c.1-.1.3-.2.4-.4l1.7-1.9c.3-.3.7-.5 1.1-.5H22c-.5 4.9-4.2 8.6-8.9 9.1z" fill="#fff"/><path fill-rule="evenodd" clip-rule="evenodd" d="M12 0C5.4 0 0 5.4 0 12s5.4 12 12 12 12-5.4 12-12S18.6 0 12 0zm0 2c5.2 0 9.5 3.9 10 9h-4c-.4 0-.7-.1-1-.4l-1-.9c-.6-.5-1.3-.7-2-.7h-4c-.7 0-1.4.3-1.9.7l-1.1.9c-.3.3-.6.4-1 .4H2c.6-5.1 4.9-9 10-9zM2 13h3.5c.4 0 .8.2 1.1.5l1.7 1.9c.1.1.2.3.4.4l1.9 1.7c.3.3.5.7.5 1.1V22c-4.8-.5-8.6-4.2-9.1-9zm11.1 9v-3.5c0-.4.2-.8.5-1.1l1.9-1.7c.1-.1.3-.2.4-.4l1.7-1.9c.3-.3.7-.5 1.1-.5H22c-.5 4.9-4.2 8.6-8.9 9.1z" fill="#fff"/></svg>