<svg width="45" height="45" xmlns="http://www.w3.org/2000/svg"><path fill-rule="evenodd" clip-rule="evenodd" d="M22.5 0C10.125 0 0 10.125 0 22.5S10.125 45 22.5 45 45 34.875 45 22.5 34.875 0 22.5 0zm0 3.75c9.75 0 17.813 7.313 18.75 16.875h-7.5c-.75 0-1.313-.188-1.875-.75L30 18.187c-1.125-.937-2.438-1.312-3.75-1.312h-7.5c-1.313 0-2.625.563-3.563 1.313l-2.062 1.687c-.563.563-1.125.75-1.875.75h-7.5C4.875 11.062 12.938 3.75 22.5 3.75zM3.75 24.375h6.563c.75 0 1.5.375 2.062.938l3.188 3.562c.187.188.374.563.75.75l3.562 3.188c.563.562.938 1.312.938 2.062v6.375c-9-.938-16.125-7.875-17.063-16.875zM24.563 41.25v-6.563c0-.75.375-1.5.937-2.062l3.563-3.188c.187-.187.562-.375.75-.75L33 25.125c.563-.563 1.313-.938 2.063-.938h6.187c-.938 9.188-7.875 16.125-16.688 17.063z"/><mask id="a" maskUnits="userSpaceOnUse" x="0" y="0" width="45" height="45"><path fill-rule="evenodd" clip-rule="evenodd" d="M22.5 0C10.125 0 0 10.125 0 22.5S10.125 45 22.5 45 45 34.875 45 22.5 34.875 0 22.5 0zm0 3.75c9.75 0 17.813 7.313 18.75 16.875h-7.5c-.75 0-1.313-.188-1.875-.75L30 18.187c-1.125-.937-2.438-1.312-3.75-1.312h-7.5c-1.313 0-2.625.563-3.563 1.313l-2.062 1.687c-.563.563-1.125.75-1.875.75h-7.5C4.875 11.062 12.938 3.75 22.5 3.75zM3.75 24.375h6.563c.75 0 1.5.375 2.062.938l3.188 3.562c.187.188.374.563.75.75l3.562 3.188c.563.562.938 1.312.938 2.062v6.375c-9-.938-16.125-7.875-17.063-16.875zM24.563 41.25v-6.563c0-.75.375-1.5.937-2.062l3.563-3.188c.187-.187.562-.375.75-.75L33 25.125c.563-.563 1.313-.938 2.063-.938h6.187c-.938 9.188-7.875 16.125-16.688 17.063z" fill="#fff"/></mask></svg>