<svg width="24" height="28" fill="none" xmlns="http://www.w3.org/2000/svg"><path d="M19.25 19.852c1.13 0 2.078.4 2.844 1.203.802.765 1.203 1.713 1.203 2.843V28H3.719L0 9.734V0h3.5c.948 0 1.768.346 2.46 1.04C6.655 1.731 7 2.551 7 3.5v4.867l4.32 11.485h7.93zM2.352 2.352v5.03h2.296V3.5c0-.328-.109-.602-.328-.82a1.113 1.113 0 00-.82-.328H2.352zm2.68 7.382H2.405L5.36 24.5l3.774-3.773L5.03 9.734zM21 25.648v-1.75c0-.474-.164-.875-.492-1.203-.328-.364-.748-.547-1.258-.547h-8.258l-3.5 3.5H21z" fill="#4A4F54"/></svg>