<svg xmlns="http://www.w3.org/2000/svg"><path d="M38.331 31.509c.97.97 1.456 2.156 1.456 3.558 0 1.348-.486 2.507-1.456 3.477-.97.97-2.157 1.456-3.558 1.456-1.348 0-2.507-.485-3.478-1.456L26.12 33.37c-.97-.97-1.456-2.13-1.456-3.477 0-1.402.486-2.588 1.456-3.558.97-.97 2.13-1.456 3.477-1.456 1.402 0 2.588.485 3.559 1.456l5.175 5.175zm-4.69 4.69c.323.324.7.486 1.132.486.431 0 .808-.162 1.132-.486.377-.323.566-.7.566-1.132 0-.485-.162-.89-.485-1.213L30.81 28.68c-.323-.324-.727-.486-1.213-.486-.431 0-.808.19-1.132.566-.323.324-.485.701-.485 1.133 0 .43.162.808.485 1.132l5.176 5.175zm2.75-16.335c-1.618 1.617-3.586 2.669-5.904 3.154-2.264.431-4.42.242-6.47-.566L8.491 38.382c-.97.971-2.156 1.456-3.558 1.456-1.348 0-2.507-.485-3.477-1.455C.486 37.413 0 36.226 0 34.824c0-1.347.485-2.506 1.456-3.477l15.85-15.526c-.81-2.049-.97-4.205-.486-6.47.485-2.318 1.537-4.286 3.154-5.903C22.724.698 26.012-.407 29.84.133l3.235.485c.43.108.754.27.97.485.323.323.485.728.485 1.213 0 .431-.162.809-.485 1.132l-5.903 5.823c-.755.754-.755 1.536 0 2.345.323.323.7.485 1.132.485.485 0 .89-.162 1.213-.485l5.903-5.823c.755-.755 1.51-.755 2.264 0 .216.216.378.54.486.97l.485 3.235c.539 3.882-.54 7.17-3.235 9.866zM22.318 5.794c-1.617 1.617-2.426 3.584-2.426 5.903 0 2.264.809 4.205 2.426 5.822 1.618 1.617 3.558 2.426 5.823 2.426 2.318 0 4.286-.809 5.903-2.426 1.94-1.94 2.722-4.286 2.345-7.035l-3.558 3.477c-.97.97-2.157 1.455-3.558 1.455-1.348 0-2.507-.485-3.477-1.455-.97-.97-1.456-2.13-1.456-3.478 0-1.401.485-2.587 1.456-3.558l3.558-3.477c-2.75-.377-5.095.404-7.036 2.345zM6.146 36.037l15.041-15.123a15.48 15.48 0 01-1.213-1.05c-.323-.324-.7-.756-1.132-1.295L3.801 33.692c-.324.324-.485.701-.485 1.133 0 .43.161.835.485 1.212.323.324.7.486 1.132.486.485 0 .89-.162 1.213-.486zm5.903-21.592L.485 2.882C.162 2.559 0 2.154 0 1.669 0 1.238.162.86.485.537.81.213 1.186.052 1.617.052c.486 0 .89.161 1.213.485L14.394 12.1c.324.323.486.728.486 1.213 0 .431-.162.809-.486 1.132-.323.324-.7.485-1.132.485-.485 0-.89-.161-1.213-.485z"/></svg>