<svg fill="none" xmlns="http://www.w3.org/2000/svg" viewBox="0 0 18 18"><path d="M9.35 7.7H2.67c-.42 0-.68.05-.77.14-.07.07-.1.18-.1.32 0 .28.23.44.7.49l3.02.2c.94.08 1.56.27 1.86.57.26.26.39.61.39 1.06 0 .47-.14.84-.42 1.12-.35.35-1.01.53-1.97.53H1.93a7.47 7.47 0 0010.87 3.16 7.4 7.4 0 002.77-3.16h1.62a8.66 8.66 0 01-3.27 4.22A8.7 8.7 0 018.75 18c-2.1 0-3.98-.66-5.62-1.97A8.68 8.68 0 010 11.07h5.59c.56 0 .84-.17.84-.52 0-.3-.24-.47-.73-.5l-2.78-.2c-1.01-.1-1.67-.29-1.97-.57C.62 9 .45 8.64.45 8.2c0-.42.16-.78.46-1.09.36-.33.98-.5 1.87-.5h7.45l2.7 4.2h.29l2.64-4.2a7.13 7.13 0 00-2.71-3.65 7.16 7.16 0 00-4.4-1.44 7.2 7.2 0 00-3.69.99 7.68 7.68 0 00-2.7 2.63H.63A8.87 8.87 0 018.75 0c2.04 0 3.86.62 5.45 1.86a8.87 8.87 0 013.24 4.75l-3.66 5.52H12.3L9.35 7.7z" fill="#0C121C"/></svg>