<svg fill="none" xmlns="http://www.w3.org/2000/svg" viewBox="0 0 19 11"><path d="M17.07 7.35a8.1 8.1 0 011.75 2.08c.17.32.2.57.11.73a.68.68 0 01-.42.29l-.32.03-2.42.04c-.36.07-.75-.05-1.2-.36a5.13 5.13 0 01-.84-.8c-.33-.4-.62-.72-.88-.95-.26-.26-.48-.36-.67-.29-.19.08-.34.25-.46.53a2.1 2.1 0 00-.17.81l-.04.35c0 .12-.05.24-.14.35a.45.45 0 01-.21.11.58.58 0 01-.18.03l-.1-.03H9.82c-.18.02-.43.03-.73.03a7.52 7.52 0 01-1.62-.49 6.39 6.39 0 01-2.11-1.47c-.68-.7-1.38-1.64-2.11-2.82a31.43 31.43 0 01-1.62-2.98l-.6-1.24C.97 1.12.99.98 1.08.88c.05-.04.1-.08.18-.1.09-.05.17-.07.24-.07h2.67c.17.02.3.08.43.17l.2.28c.29.7.62 1.38 1 2 .5.9.9 1.5 1.19 1.8.3.3.55.4.73.28.17-.1.27-.35.32-.77.07-.45.1-.87.07-1.27l-.03-.6c.02-.56-.06-.97-.25-1.23-.14-.18-.41-.31-.8-.38-.13-.03-.08-.14.13-.35.07-.05.15-.1.25-.14C7.75.33 8.5.25 9.65.25c.47 0 .89.05 1.26.14.17.05.3.12.4.21.08.07.14.21.17.42.04.2.07.37.07.53 0 .16-.01.45-.04.84V4.26c0 .1.01.22.04.38.02.17.06.3.1.4.05.08.12.16.21.2.1.05.2.05.32 0 .12-.04.3-.23.56-.56.28-.35.61-.84.99-1.48l1.02-2.1c.04-.15.11-.24.2-.29l.36-.07L18 .71c.54-.05.86.04.95.28.15.4-.32 1.32-1.4 2.78-.14.2-.34.46-.6.77-.6.8-.91 1.31-.91 1.55 0 .2.31.6.95 1.2l.07.06z" fill="#E9ECEC"/></svg>