<svg xmlns="http://www.w3.org/2000/svg"><path d="M4.218 35.694c-1.627 0-2.835-.673-3.625-2.021-.79-1.302-.79-2.673 0-4.114L16.627 1.883C17.417.627 18.557 0 20.043 0c1.534 0 2.673.627 3.416 1.882.698 1.162 1.58 2.696 2.65 4.602 1.115 1.905 2.835 4.88 5.159 8.923a932.311 932.311 0 015.856 10.109c1.533 2.696 2.277 4.044 2.23 4.044.837 1.487.86 2.881.07 4.183-.79 1.3-2.021 1.951-3.695 1.951H4.218zm32.627-3.485c0 .093-1.418-2.254-4.253-7.042-2.788-4.833-5.6-9.69-8.435-14.57-2.79-4.88-4.183-7.344-4.183-7.39 0 .046-2.789 4.88-8.366 14.5C6.03 27.33 3.242 32.163 3.242 32.21h33.603zm-14.85-5.229c0 .558-.209 1.046-.627 1.464-.372.372-.837.558-1.394.558-.512 0-.976-.21-1.395-.628-.418-.418-.627-.883-.627-1.394 0-.511.209-.953.627-1.325.419-.418.883-.627 1.395-.627.51 0 .976.21 1.394.628.418.371.627.813.627 1.324zm-.279-5.856c0 .465-.185.883-.557 1.255-.326.325-.72.488-1.185.488-.465 0-.884-.163-1.255-.488a1.856 1.856 0 01-.488-1.255v-8.017c0-.465.162-.86.488-1.186.371-.371.79-.557 1.255-.557.464 0 .86.186 1.185.557.372.326.558.72.558 1.186v8.017z"/></svg>