<svg width="45" height="45" xmlns="http://www.w3.org/2000/svg"><path d="M38.408 38.408C34.014 42.803 28.711 45 22.5 45c-6.21 0-11.514-2.197-15.908-6.592C2.197 34.014 0 28.711 0 22.5c0-6.21 2.197-11.514 6.592-15.908C10.986 2.197 16.289 0 22.5 0c6.21 0 11.514 2.197 15.908 6.592C42.803 10.986 45 16.289 45 22.5c0 6.21-2.197 11.514-6.592 15.908zM35.684 9.316C32.05 5.625 27.656 3.78 22.5 3.78c-5.156 0-9.58 1.846-13.271 5.537-3.633 3.633-5.45 8.028-5.45 13.184 0 5.156 1.817 9.58 5.45 13.272 3.69 3.632 8.115 5.449 13.271 5.449 5.156 0 9.55-1.817 13.184-5.45 3.691-3.69 5.537-8.115 5.537-13.271 0-5.156-1.846-9.55-5.537-13.184zm-23.819 2.637c2.989-2.988 6.533-4.482 10.635-4.482 4.102 0 7.617 1.494 10.547 4.482 2.988 2.93 4.482 6.445 4.482 10.547s-1.494 7.646-4.482 10.635c-2.93 2.93-6.445 4.394-10.547 4.394s-7.646-1.465-10.635-4.394c-2.93-2.988-4.394-6.533-4.394-10.635 0-4.102 1.465-7.617 4.394-10.547zm20.567 5.361c-1.7-3.28-4.395-5.244-8.086-5.888v5.8c1.172.41 2.05 1.026 2.636 1.846l5.45-1.758zm-11.778-5.888c-3.691.644-6.386 2.607-8.086 5.888l5.45 1.758c.585-.82 1.464-1.435 2.636-1.845v-5.801zM11.25 22.5c0 3.105 1.084 5.742 3.252 7.91l3.34-4.746c-.645-.937-.967-1.934-.967-2.988l-5.45-1.758c-.116.703-.175 1.23-.175 1.582zm6.24 10.107c1.465.762 3.135 1.143 5.01 1.143 1.816 0 3.486-.41 5.01-1.23l-3.428-4.659a4.976 4.976 0 01-1.582.264 4.976 4.976 0 01-1.582-.264l-3.428 4.746zm13.008-2.285c2.168-2.168 3.252-4.775 3.252-7.822 0-.762-.03-1.318-.088-1.67l-5.537 1.846c0 1.055-.322 2.05-.967 2.988l3.34 4.658z"/></svg>